<?xml version="1.0" encoding="UTF-8"?>
<svg id="Layer_1" data-name="Layer 1" xmlns="http://www.w3.org/2000/svg" version="1.1" viewBox="0 0 438.7 149.8">
  <defs>
    <style>
      .cls-1, .cls-2, .cls-3, .cls-4, .cls-5, .cls-6 {
        fill: #fff;
      }

      .cls-1, .cls-7, .cls-8, .cls-3, .cls-9, .cls-4, .cls-6, .cls-10 {
        stroke-width: 0px;
      }

      .cls-1, .cls-8, .cls-9, .cls-4 {
        fill-rule: evenodd;
      }

      .cls-2 {
        stroke-width: 1px;
      }

      .cls-2, .cls-11, .cls-12, .cls-5 {
        stroke: #fff;
        stroke-miterlimit: 10;
      }

      .cls-7, .cls-10 {
        fill: #2b2a5f;
      }

      .cls-8, .cls-9 {
        fill: #2a2a5f;
      }

      .cls-3, .cls-11, .cls-9, .cls-4, .cls-5, .cls-10 {
        display: none;
      }

      .cls-11 {
        stroke-width: 6px;
      }

      .cls-11, .cls-12 {
        fill: none;
      }

      .cls-12 {
        stroke-width: 8.6px;
      }

      .cls-5 {
        stroke-width: 1px;
      }
    </style>
  </defs>
  <path class="cls-4" d="M256.7,4.4c16.5-1.1,29.4,5.5,37.8,13.4,4.7,4.4,8.1,8.7,11.1,14.6,2.9,5.7,5.1,12.3,5.5,20.1.7,12.6-3.1,22.8-7.9,30.5-4.9,7.8-11.5,13.8-20.2,18.2-5.6,2.9-12.4,5.2-20.1,5.5-16.2.7-28.8-5.1-37.7-13.3-4.4-4-8.2-8.9-11.1-14.6-2.9-5.6-5.1-12.5-5.5-20.1-.8-17.2,5.4-29,13.4-37.8,3.1-3.4,6.4-6.4,10.5-8.9,6.5-4.1,14.3-7,24.2-7.7h0ZM298.9,40.3c-2.7-7-6.9-12.9-12.2-17.1-7.1-5.8-16.8-10.4-29.5-9.6-10.7.6-19.3,5.1-25.8,10.9-4.7,4.2-8.5,9.8-10.9,16.2-.8,2.1-2,4.8-.7,7.2,2.9.8,5.8-.2,8.5-.8,1.3-.3,2.6-.8,4-1.1,1.4-.3,2.9-.4,4.1-1,.6-.3,1.1-.9,1.7-1.3,4.9-3.6,13.8-4.7,21.6-4.7s14.8.8,19.9,3.4c1.2.6,2.5,1.8,3.4,2.4.2.2.2,0,.6.2,2.5,1,5.3,1.3,7.9,2,2.6.7,5.4,1.9,8.3,1,1.4-2.6,0-5.3-1-7.5h0ZM223.5,62.4c-1.4.1-3.2.7-3.8,1.6-1.2,1.9.3,5.4,1.1,7.4,4.2,10.2,11.9,18.1,22,22.6,1.6.7,4.5,1.8,5.8,1,1.4-.9,1.3-4.1,1.2-6.3-.1-2.5-.6-4.6-.6-6.9-7.9-3.5-13.2-9.7-15-19.3-3.6.2-8-.2-10.8,0h0ZM285.6,62.8c-2,9.2-7,15.5-14.8,18.8,0,2.4-.5,4.4-.6,7.1,0,2.2-.2,5.7,1.3,6.4,1.3.7,4-.5,5.6-1.2,7.8-3.6,13.5-8.8,17.9-15.2,1.5-2.2,2.7-4.5,3.9-7.3.7-1.6,1.7-4.2,1.6-5.8-.3-3.1-3.7-3.2-6.7-3.2h-8c-.1,0-.1.2-.1.4h0Z"/>
  <path class="cls-5" d="M296.4,15.6h134.4c4,0,7.3,3.6,7.3,8.1v65.1c0,4.4-3.3,8.1-7.3,8.1H7.8c-4,0-7.3-3.6-7.3-8.1V23.7c0-4.4,3.3-8.1,7.3-8.1h215.4"/>
  <path class="cls-10" d="M63.1,34.6v40.1c0,1.8-1.4,3.2-3.2,3.2h-1.3c-1.8,0-3.2-1.4-3.2-3.2v-16.5l-15.5,19.3-15.5-19.3v16.5c0,1.8-1.4,3.2-3.2,3.2h-1.3c-1.8,0-3.2-1.4-3.2-3.2v-40.1l23.2,30,23.2-30h0Z"/>
  <path class="cls-10" d="M108.6,34.5h0s-16.8,21.7-16.8,21.7h0s-.9,1.2-.9,1.2v17.2c0,1.8-1.4,3.2-3.2,3.2h-1.3c-1.8,0-3.2-1.4-3.2-3.2v-17.1l-1-1.3h0s-12.8-16.6-12.8-16.6c-1.6-2.1-.1-5.2,2.6-5.2h1.6c1,0,1.9.5,2.6,1.2l10.9,14.2,10.9-14.2c.6-.8,1.6-1.2,2.6-1.2h8.2ZM65.3,77.9h0,0c0,.1,0,0,0,0ZM108.5,77.9h0c0,0,0,0,0,0Z"/>
  <path class="cls-10" d="M115.8,57.2c.5,7.4,7,13,14.4,13h18c1.8,0,3.2,1.4,3.2,3.2v1.3c0,1.8-1.4,3.2-3.2,3.2h-17.8c-11.7,0-21.7-9-22.2-20.6-.6-12.4,9.3-22.7,21.6-22.7h18.4c1.8,0,3.2,1.4,3.2,3.2v1.3c0,1.8-1.4,3.2-3.2,3.2h-18.4c-8,0-14.4,6.8-13.9,14.9Z"/>
  <path class="cls-10" d="M200.7,37.8v36.9c0,1.8-1.4,3.2-3.2,3.2h-1.3c-1.8,0-3.2-1.4-3.2-3.2v-16.7h-27.9v16.6c0,1.8-1.4,3.2-3.2,3.2h-1.3c-1.8,0-3.2-1.4-3.2-3.2v-36.9c0-1.8,1.4-3.2,3.2-3.2h1.3c1.8,0,3.2,1.4,3.2,3.2v12.5h27.9v-12.5c0-1.8,1.4-3.2,3.2-3.2h1.3c1.8,0,3.2,1.4,3.2,3.2h0Z"/>
  <path class="cls-10" d="M318.2,74.7v-36.9c0-1.8,1.4-3.2,3.2-3.2h1.3c1.8,0,3.2,1.4,3.2,3.2v36.9c0,1.8-1.4,3.2-3.2,3.2h-1.3c-1.8,0-3.2-1.4-3.2-3.2Z"/>
  <path class="cls-10" d="M374.9,73.4v1.3c0,1.8-1.4,3.2-3.2,3.2h-33.5c-2.7,0-4.2-3.1-2.5-5.2l23.4-30.3h-24.3c-1.8,0-3.2-1.4-3.2-3.2v-1.3c0-1.8,1.4-3.2,3.2-3.2h33.5c2.7,0,4.2,3,2.5,5.2l-23.4,30.4h24.3c1.8,0,3.2,1.4,3.2,3.2h0Z"/>
  <path class="cls-10" d="M386.4,46.3v6.3h31.9c1.8,0,3.2,1.4,3.2,3.2v1.3c0,1.8-1.4,3.2-3.2,3.2h-31.9v5.9c0,2.2,1.8,4,4,4h28.4c1.8,0,3.2,1.4,3.2,3.2v1.3c0,1.8-1.4,3.2-3.2,3.2h-28.4c-6.5,0-11.7-5.2-11.7-11.7v-20c0-6.5,5.2-11.7,11.7-11.7h28.4c1.8,0,3.2,1.4,3.2,3.2v1.3c0,1.8-1.4,3.2-3.2,3.2h-28.4c-2.2,0-4,1.8-4,4h0Z"/>
  <path class="cls-11" d="M256.7,4.4c16.5-1.1,29.4,5.5,37.8,13.4,4.7,4.4,8.1,8.7,11.1,14.6,2.9,5.7,5.1,12.3,5.5,20.1.7,12.6-3.1,22.8-7.9,30.5-4.9,7.8-11.5,13.8-20.2,18.2-5.6,2.9-12.4,5.2-20.1,5.5-16.2.7-28.8-5.1-37.7-13.3-4.4-4-8.2-8.9-11.1-14.6-2.9-5.6-5.1-12.5-5.5-20.1-.8-17.2,5.4-29,13.4-37.8,3.1-3.4,6.4-6.4,10.5-8.9,6.5-4.1,14.3-7,24.2-7.7h0ZM298.9,40.3c-2.7-7-6.9-12.9-12.2-17.1-7.1-5.8-16.8-10.4-29.5-9.6-10.7.6-19.3,5.1-25.8,10.9-4.7,4.2-8.5,9.8-10.9,16.2-.8,2.1-2,4.8-.7,7.2,2.9.8,5.8-.2,8.5-.8,1.3-.3,2.6-.8,4-1.1,1.4-.3,2.9-.4,4.1-1,.6-.3,1.1-.9,1.7-1.3,4.9-3.6,13.8-4.7,21.6-4.7s14.8.8,19.9,3.4c1.2.6,2.5,1.8,3.4,2.4.2.2.2,0,.6.2,2.5,1,5.3,1.3,7.9,2,2.6.7,5.4,1.9,8.3,1,1.4-2.6,0-5.3-1-7.5h0ZM223.5,62.4c-1.4.1-3.2.7-3.8,1.6-1.2,1.9.3,5.4,1.1,7.4,4.2,10.2,11.9,18.1,22,22.6,1.6.7,4.5,1.8,5.8,1,1.4-.9,1.3-4.1,1.2-6.3-.1-2.5-.6-4.6-.6-6.9-7.9-3.5-13.2-9.7-15-19.3-3.6.2-8-.2-10.8,0h0ZM285.6,62.8c-2,9.2-7,15.5-14.8,18.8,0,2.4-.5,4.4-.6,7.1,0,2.2-.2,5.7,1.3,6.4,1.3.7,4-.5,5.6-1.2,7.8-3.6,13.5-8.8,17.9-15.2,1.5-2.2,2.7-4.5,3.9-7.3.7-1.6,1.7-4.2,1.6-5.8-.3-3.1-3.7-3.2-6.7-3.2h-8c-.1,0-.1.2-.1.4h0Z"/>
  <path class="cls-9" d="M256.7,4.4c16.5-1.1,29.4,5.5,37.8,13.4,4.7,4.4,8.1,8.7,11.1,14.6,2.9,5.7,5.1,12.3,5.5,20.1.7,12.6-3.1,22.8-7.9,30.5-4.9,7.8-11.5,13.8-20.2,18.2-5.6,2.9-12.4,5.2-20.1,5.5-16.2.7-28.8-5.1-37.7-13.3-4.4-4-8.2-8.9-11.1-14.6-2.9-5.6-5.1-12.5-5.5-20.1-.8-17.2,5.4-29,13.4-37.8,3.1-3.4,6.4-6.4,10.5-8.9,6.5-4.1,14.3-7,24.2-7.7h0ZM298.9,40.3c-2.7-7-6.9-12.9-12.2-17.1-7.1-5.8-16.8-10.4-29.5-9.6-10.7.6-19.3,5.1-25.8,10.9-4.7,4.2-8.5,9.8-10.9,16.2-.8,2.1-2,4.8-.7,7.2,2.9.8,5.8-.2,8.5-.8,1.3-.3,2.6-.8,4-1.1,1.4-.3,2.9-.4,4.1-1,.6-.3,1.1-.9,1.7-1.3,4.9-3.6,13.8-4.7,21.6-4.7s14.8.8,19.9,3.4c1.2.6,2.5,1.8,3.4,2.4.2.2.2,0,.6.2,2.5,1,5.3,1.3,7.9,2,2.6.7,5.4,1.9,8.3,1,1.4-2.6,0-5.3-1-7.5h0ZM223.5,62.4c-1.4.1-3.2.7-3.8,1.6-1.2,1.9.3,5.4,1.1,7.4,4.2,10.2,11.9,18.1,22,22.6,1.6.7,4.5,1.8,5.8,1,1.4-.9,1.3-4.1,1.2-6.3-.1-2.5-.6-4.6-.6-6.9-7.9-3.5-13.2-9.7-15-19.3-3.6.2-8-.2-10.8,0h0ZM285.6,62.8c-2,9.2-7,15.5-14.8,18.8,0,2.4-.5,4.4-.6,7.1,0,2.2-.2,5.7,1.3,6.4,1.3.7,4-.5,5.6-1.2,7.8-3.6,13.5-8.8,17.9-15.2,1.5-2.2,2.7-4.5,3.9-7.3.7-1.6,1.7-4.2,1.6-5.8-.3-3.1-3.7-3.2-6.7-3.2h-8c-.1,0-.1.2-.1.4h0Z"/>
  <circle class="cls-3" cx="96.6" cy="138" r="5.1"/>
  <circle class="cls-3" cx="342.1" cy="137.8" r="5.1"/>
  <path class="cls-3" d="M132.3,132.9h-5c0-1.9-.2-3.2-.7-4s-1.2-1.2-2.3-1.2-2.1.7-2.5,2.1c-.4,1.3-.6,3.8-.6,7.4s.3,6,.8,7.2c.4,1.1,1.2,1.6,2.4,1.6s1.8-.4,2.2-1.1c.6-.9.9-2.7.9-5.1h5c0,3.1-.5,5.4-1.5,7-1.2,2-3.4,3-6.4,3s-5.8-1.2-7-3.6c-.9-1.8-1.4-4.9-1.4-9.2s.5-7.4,1.4-9.2c1.2-2.4,3.6-3.6,7-3.6s5.3,1,6.5,3.1c.8,1.3,1.1,3.3,1.1,5.8h0Z"/>
  <path class="cls-3" d="M135.4,149.3l6.6-24.8h6.2l6.6,24.8h-5.2l-1.1-5.2h-6.6l-1.1,5.2h-5.2ZM145,128.8l-2.4,11.1h4.9l-2.4-11.1h0Z"/>
  <path class="cls-3" d="M158.1,149.3v-24.8h9.2c2.1,0,3.7.5,4.9,1.6,1.2,1.1,1.7,2.7,1.7,4.7,0,3.5-1.4,5.5-4.1,6.1h0c1.6.3,2.7.9,3.2,2.1.5,1,.7,2.8.8,5.6,0,1.4,0,2.4.2,3,.2.7.5,1.2.9,1.4v.2h-5.4c-.4-.6-.6-1.4-.6-2.6v-4.8c-.2-2.1-1.2-3.1-3.1-3.1h-2.7v10.5h-5,0ZM163.1,128.2v7.1h2.1c2.5,0,3.7-1.2,3.7-3.7s-1.2-3.4-3.5-3.4h-2.4,0Z"/>
  <path class="cls-3" d="M189.2,149.3v-24.8h9.2c2.1,0,3.7.5,4.9,1.6,1.2,1.1,1.7,2.7,1.7,4.7,0,3.5-1.4,5.5-4.1,6.1h0c1.6.3,2.7.9,3.2,2.1.5,1,.7,2.8.8,5.6,0,1.4,0,2.4.2,3,.2.7.5,1.2.9,1.4v.2h-5.4c-.4-.6-.6-1.4-.6-2.6v-4.8c-.2-2.1-1.2-3.1-3.1-3.1h-2.7v10.5h-5,0ZM194.2,128.2v7.1h2.1c2.5,0,3.7-1.2,3.7-3.7s-1.2-3.4-3.5-3.4h-2.4,0Z"/>
  <path class="cls-3" d="M210.2,124.5h13.8v4.1h-8.8v5.8h8.3v4.1h-8.3v6.6h9.2v4.1h-14.2v-24.8h0Z"/>
  <path class="cls-3" d="M228.6,124.5h5.8l6.1,17v-16.9h4.6v24.8h-5.7l-6.1-17.3v17.3h-4.6v-24.8Z"/>
  <path class="cls-3" d="M248.9,124.5h15.8v4.1h-5.4v20.7h-5v-20.7h-5.4v-4.1h0Z"/>
  <path class="cls-3" d="M266.9,149.3l6.5-24.8h6.2l6.5,24.8h-5.2l-1.1-5.2h-6.6l-1.1,5.2h-5.2,0ZM276.5,128.8l-2.4,11.1h4.9l-2.4-11.1h0,0Z"/>
  <path class="cls-3" d="M303.4,149.3h-13.8v-24.8h5v20.7h8.8v4.1Z"/>
  <path class="cls-3" d="M306.4,141.6h5v.7c0,1.3.2,2.2.7,2.8.5.7,1.4,1,2.6,1s1.5-.3,2.1-.8c.6-.5.9-1.3.9-2.2s-.3-1.9-.9-2.5c-.6-.6-1.8-1.2-3.5-1.7-2.3-.8-3.9-1.7-4.9-2.8-1.1-1.2-1.6-2.7-1.6-4.7s.7-4.2,2.1-5.4c1.3-1.2,3.2-1.8,5.6-1.8s4.2.5,5.5,1.6c1.4,1.1,2.1,2.8,2.1,5.1v.7h-4.8c0-2.4-.9-3.7-2.7-3.7s-2.8,1-2.8,2.9.2,1.4.5,1.9c.4.5,1.1,1,2.1,1.5l3.9,1.7c1.8.8,3.1,1.7,3.8,2.7.6.9.9,2.2.9,3.8,0,5.1-2.9,7.6-8.6,7.6s-7.9-2.4-7.9-7.2v-1h0Z"/>
  <g>
    <g>
      <path class="cls-1" d="M256.3,4.6c16.3-1.1,29.1,5.5,37.4,13.2,4.6,4.3,8,8.6,10.9,14.4,2.9,5.6,5,12.2,5.4,19.8.7,12.5-3,22.5-7.8,30.1-4.9,7.7-11.4,13.6-19.9,18-5.5,2.8-12.2,5.1-19.8,5.4-16,.7-28.4-5.1-37.2-13.1-4.3-4-8.1-8.8-10.9-14.4-2.8-5.5-5.1-12.4-5.4-19.8-.8-17,5.4-28.6,13.2-37.4,3-3.4,6.4-6.3,10.3-8.8,6.4-4,14.1-6.9,23.9-7.6ZM298,40c-2.7-7-6.8-12.7-12-16.9-7-5.7-16.6-10.2-29.2-9.5-10.6.6-19.1,5-25.5,10.8-4.6,4.2-8.4,9.6-10.8,16-.8,2.1-1.9,4.7-.7,7.1,2.9.8,5.7-.2,8.4-.8,1.3-.3,2.6-.8,4-1.1,1.4-.3,2.9-.4,4.1-1,.6-.3,1.1-.9,1.7-1.3,4.9-3.5,13.6-4.7,21.4-4.7s14.6.8,19.7,3.4c1.2.6,2.5,1.7,3.4,2.4.2.2.2,0,.6.2,2.5.9,5.2,1.3,7.8,1.9,2.6.7,5.3,1.9,8.2,1,1.4-2.5,0-5.2-1-7.5ZM223.5,61.9c-1.4.1-3.2.6-3.7,1.6-1.2,1.9.3,5.3,1.1,7.3,4.1,10.1,11.7,17.9,21.7,22.3,1.6.7,4.5,1.8,5.8,1,1.4-.9,1.3-4.1,1.2-6.2-.1-2.5-.6-4.6-.6-6.8-7.8-3.5-13-9.6-14.8-19.1-3.6.2-7.9-.2-10.7,0ZM284.7,62.2c-2,9.1-6.9,15.3-14.7,18.6,0,2.3-.5,4.4-.6,7,0,2.2-.2,5.6,1.3,6.4,1.3.6,4-.5,5.5-1.2,7.7-3.5,13.3-8.7,17.7-15,1.5-2.2,2.7-4.4,3.8-7.2.6-1.6,1.7-4.1,1.6-5.8-.3-3-3.6-3.1-6.6-3.1h-7.9c-.1,0-.1.2-.1.4Z"/>
      <path class="cls-2" d="M295.5,15.6h132.7c4,0,7.2,3.6,7.2,7.9v64.3c0,4.4-3.3,7.9-7.2,7.9H10.4c-4,0-7.2-3.6-7.2-7.9V23.6c0-4.4,3.3-7.9,7.2-7.9h212.8"/>
      <g>
        <path class="cls-7" d="M65,34.3v39.6c0,1.8-1.4,3.2-3.2,3.2h-1.3c-1.8,0-3.2-1.4-3.2-3.2v-16.3l-15.3,19.1-15.3-19.1v16.3c0,1.8-1.4,3.2-3.2,3.2h-1.3c-1.8,0-3.2-1.4-3.2-3.2v-39.6l22.9,29.6,22.9-29.6Z"/>
        <path class="cls-7" d="M110,34.3h0s-16.6,21.5-16.6,21.5h0s-.9,1.2-.9,1.2v17c0,1.8-1.4,3.2-3.2,3.2h-1.3c-1.8,0-3.2-1.4-3.2-3.2v-16.9l-1-1.3h0s-12.6-16.4-12.6-16.4c-1.6-2.1-.1-5.1,2.5-5.1h1.6c1,0,1.9.5,2.5,1.2l10.8,14,10.8-14c.6-.8,1.5-1.2,2.5-1.2h8ZM67.2,77.1h.1-.1c0,.1,0,0,0,0ZM109.9,77.1h0c0,.1,0,0,0,0Z"/>
        <path class="cls-7" d="M117.1,56.7c.5,7.3,6.9,12.8,14.2,12.8h17.7c1.8,0,3.2,1.4,3.2,3.2v1.3c0,1.8-1.4,3.2-3.2,3.2h-17.6c-11.5,0-21.4-8.9-22-20.4-.6-12.3,9.2-22.4,21.4-22.4h18.2c1.8,0,3.2,1.4,3.2,3.2v1.3c0,1.8-1.4,3.2-3.2,3.2h-18.2c-7.9,0-14.3,6.7-13.7,14.7Z"/>
        <path class="cls-7" d="M200.9,37.5v36.4c0,1.8-1.4,3.2-3.2,3.2h-1.3c-1.8,0-3.2-1.4-3.2-3.2v-16.5h-27.5v16.4c0,1.8-1.4,3.2-3.2,3.2h-1.3c-1.8,0-3.2-1.4-3.2-3.2v-36.4c0-1.8,1.4-3.2,3.2-3.2h1.3c1.8,0,3.2,1.4,3.2,3.2v12.4h27.5v-12.3c0-1.8,1.4-3.2,3.2-3.2h1.3c1.8,0,3.2,1.4,3.2,3.2Z"/>
        <path class="cls-7" d="M317,74v-36.4c0-1.8,1.4-3.2,3.2-3.2h1.3c1.8,0,3.2,1.4,3.2,3.2v36.4c0,1.8-1.4,3.2-3.2,3.2h-1.3c-1.8,0-3.2-1.4-3.2-3.2Z"/>
        <path class="cls-7" d="M373,72.7v1.3c0,1.8-1.4,3.2-3.2,3.2h-33.1c-2.6,0-4.1-3-2.5-5.1l23.1-30h-24c-1.8,0-3.2-1.4-3.2-3.2v-1.3c0-1.8,1.4-3.2,3.2-3.2h33.1c2.6,0,4.1,3,2.5,5.1l-23.1,30h24c1.8,0,3.2,1.4,3.2,3.2Z"/>
        <path class="cls-7" d="M384.4,45.9v6.2h31.5c1.8,0,3.2,1.4,3.2,3.2v1.3c0,1.8-1.4,3.2-3.2,3.2h-31.5v5.8c0,2.2,1.8,3.9,3.9,3.9h28c1.8,0,3.2,1.4,3.2,3.2v1.3c0,1.8-1.4,3.2-3.2,3.2h-28.1c-6.4,0-11.5-5.2-11.5-11.5v-19.7c0-6.4,5.2-11.5,11.5-11.5h28.1c1.8,0,3.2,1.4,3.2,3.2v1.3c0,1.8-1.4,3.2-3.2,3.2h-28.1c-2.2,0-3.9,1.8-3.9,3.9Z"/>
        <g>
          <path class="cls-12" d="M256.3,4.6c16.3-1.1,29.1,5.5,37.4,13.2,4.6,4.3,8,8.6,10.9,14.4,2.9,5.6,5,12.2,5.4,19.8.7,12.5-3,22.5-7.8,30.1-4.9,7.7-11.4,13.6-19.9,18-5.5,2.8-12.2,5.1-19.8,5.4-16,.7-28.4-5.1-37.2-13.1-4.3-4-8.1-8.8-10.9-14.4-2.8-5.5-5.1-12.4-5.4-19.8-.8-17,5.4-28.6,13.2-37.4,3-3.4,6.4-6.3,10.3-8.8,6.4-4,14.1-6.9,23.9-7.6ZM298,40c-2.7-7-6.8-12.7-12-16.9-7-5.7-16.6-10.2-29.2-9.5-10.6.6-19.1,5-25.5,10.8-4.6,4.2-8.4,9.6-10.8,16-.8,2.1-1.9,4.7-.7,7.1,2.9.8,5.7-.2,8.4-.8,1.3-.3,2.6-.8,4-1.1,1.4-.3,2.9-.4,4.1-1,.6-.3,1.1-.9,1.7-1.3,4.9-3.5,13.6-4.7,21.4-4.7s14.6.8,19.7,3.4c1.2.6,2.5,1.7,3.4,2.4.2.2.2,0,.6.2,2.5.9,5.2,1.3,7.8,1.9,2.6.7,5.3,1.9,8.2,1,1.4-2.5,0-5.2-1-7.5ZM223.5,61.9c-1.4.1-3.2.6-3.7,1.6-1.2,1.9.3,5.3,1.1,7.3,4.1,10.1,11.7,17.9,21.7,22.3,1.6.7,4.5,1.8,5.8,1,1.4-.9,1.3-4.1,1.2-6.2-.1-2.5-.6-4.6-.6-6.8-7.8-3.5-13-9.6-14.8-19.1-3.6.2-7.9-.2-10.7,0ZM284.7,62.2c-2,9.1-6.9,15.3-14.7,18.6,0,2.3-.5,4.4-.6,7,0,2.2-.2,5.6,1.3,6.4,1.3.6,4-.5,5.5-1.2,7.7-3.5,13.3-8.7,17.7-15,1.5-2.2,2.7-4.4,3.8-7.2.6-1.6,1.7-4.1,1.6-5.8-.3-3-3.6-3.1-6.6-3.1h-7.9c-.1,0-.1.2-.1.4Z"/>
          <path class="cls-8" d="M256.3,4.6c16.3-1.1,29.1,5.5,37.4,13.2,4.6,4.3,8,8.6,10.9,14.4,2.9,5.6,5,12.2,5.4,19.8.7,12.5-3,22.5-7.8,30.1-4.9,7.7-11.4,13.6-19.9,18-5.5,2.8-12.2,5.1-19.8,5.4-16,.7-28.4-5.1-37.2-13.1-4.3-4-8.1-8.8-10.9-14.4-2.8-5.5-5.1-12.4-5.4-19.8-.8-17,5.4-28.6,13.2-37.4,3-3.4,6.4-6.3,10.3-8.8,6.4-4,14.1-6.9,23.9-7.6ZM298,40c-2.7-7-6.8-12.7-12-16.9-7-5.7-16.6-10.2-29.2-9.5-10.6.6-19.1,5-25.5,10.8-4.6,4.2-8.4,9.6-10.8,16-.8,2.1-1.9,4.7-.7,7.1,2.9.8,5.7-.2,8.4-.8,1.3-.3,2.6-.8,4-1.1,1.4-.3,2.9-.4,4.1-1,.6-.3,1.1-.9,1.7-1.3,4.9-3.5,13.6-4.7,21.4-4.7s14.6.8,19.7,3.4c1.2.6,2.5,1.7,3.4,2.4.2.2.2,0,.6.2,2.5.9,5.2,1.3,7.8,1.9,2.6.7,5.3,1.9,8.2,1,1.4-2.5,0-5.2-1-7.5ZM223.5,61.9c-1.4.1-3.2.6-3.7,1.6-1.2,1.9.3,5.3,1.1,7.3,4.1,10.1,11.7,17.9,21.7,22.3,1.6.7,4.5,1.8,5.8,1,1.4-.9,1.3-4.1,1.2-6.2-.1-2.5-.6-4.6-.6-6.8-7.8-3.5-13-9.6-14.8-19.1-3.6.2-7.9-.2-10.7,0ZM284.7,62.2c-2,9.1-6.9,15.3-14.7,18.6,0,2.3-.5,4.4-.6,7,0,2.2-.2,5.6,1.3,6.4,1.3.6,4-.5,5.5-1.2,7.7-3.5,13.3-8.7,17.7-15,1.5-2.2,2.7-4.4,3.8-7.2.6-1.6,1.7-4.1,1.6-5.8-.3-3-3.6-3.1-6.6-3.1h-7.9c-.1,0-.1.2-.1.4Z"/>
        </g>
      </g>
    </g>
    <g>
      <path class="cls-6" d="M92.8,140.4h5.1v.7c0,1.3.2,2.2.7,2.8.5.7,1.4,1.1,2.7,1.1s1.6-.3,2.1-.8c.6-.5.9-1.3.9-2.3s-.3-1.9-1-2.5-1.8-1.2-3.6-1.8c-2.3-.8-4-1.7-5-2.8-1.1-1.2-1.6-2.8-1.6-4.8s.7-4.2,2.1-5.5c1.3-1.2,3.2-1.9,5.7-1.9s4.3.5,5.6,1.6c1.5,1.2,2.2,2.9,2.2,5.2v.7h-4.9c0-2.5-.9-3.7-2.7-3.7s-2.9,1-2.9,2.9.2,1.5.5,1.9c.4.5,1.1,1,2.1,1.5l3.9,1.7c1.8.8,3.1,1.7,3.8,2.8.6,1,1,2.3,1,3.9,0,5.1-2.9,7.7-8.7,7.7s-8-2.4-8-7.3v-1h0Z"/>
      <path class="cls-6" d="M112.8,123.1h14.1v4.2h-9v5.9h8.5v4.2h-8.5v6.8h9.3v4.2h-14.4v-25.1Z"/>
      <path class="cls-6" d="M144.5,148.3h-14v-25.1h5.1v21h9v4.2Z"/>
      <path class="cls-6" d="M147.4,148.3v-25.1h14.1v4.2h-9v5.9h8.5v4.2h-8.5v10.9h-5.1Z"/>
      <path class="cls-6" d="M173.8,148.3v-25.1h8.3c3.3,0,5.6,1.1,6.8,3.3,1,1.8,1.5,4.7,1.5,8.9s-.6,7.9-1.8,9.8c-1.3,2.1-3.6,3.1-6.8,3.1h-8ZM178.9,126.9v17.7h2.3c1.7,0,2.9-.7,3.4-2,.5-1.2.8-3.6.8-7.1s-.2-5.3-.7-6.4c-.6-1.5-1.8-2.2-3.6-2.2h-2.1Z"/>
      <path class="cls-6" d="M194.5,148.3v-25.1h9.4c2.1,0,3.8.6,4.9,1.7,1.2,1.1,1.8,2.7,1.8,4.8,0,3.5-1.4,5.6-4.2,6.2h0c1.7.3,2.8,1,3.3,2.1.5,1,.7,2.9.8,5.7,0,1.5,0,2.5.2,3.1.2.7.5,1.2.9,1.4v.2h-5.5c-.4-.6-.6-1.4-.6-2.6v-4.8c-.2-2.1-1.2-3.2-3.1-3.2h-2.7v10.6h-5.1ZM199.6,126.9v7.3h2.1c2.5,0,3.8-1.3,3.8-3.8s-1.2-3.5-3.5-3.5h-2.4Z"/>
      <path class="cls-6" d="M220.1,148.3h-5.1v-25.1h5.1v25.1Z"/>
      <path class="cls-6" d="M222.9,123.1h5.4l3.6,18.6h.1l3.7-18.6h5.2l-5.8,25.1h-6.5l-5.8-25.1Z"/>
      <path class="cls-6" d="M243.5,123.1h14.1v4.2h-9v5.9h8.5v4.2h-8.5v6.8h9.3v4.2h-14.4v-25.1h0Z"/>
      <path class="cls-6" d="M286.2,131.6h-5.1c0-1.9-.2-3.2-.7-4s-1.2-1.2-2.4-1.2-2.1.7-2.5,2.2c-.4,1.3-.6,3.8-.6,7.5s.3,6.1.8,7.3c.4,1.1,1.3,1.7,2.4,1.7s1.8-.4,2.3-1.2c.6-1,.9-2.7.9-5.2h5.1c0,3.1-.5,5.5-1.5,7.1-1.3,2-3.4,3-6.5,3s-5.9-1.2-7.1-3.7c-1-1.9-1.4-5-1.4-9.4s.5-7.5,1.4-9.4c1.2-2.4,3.6-3.7,7.1-3.7s5.4,1,6.6,3.1c.8,1.3,1.2,3.3,1.2,5.9Z"/>
      <path class="cls-6" d="M288.2,148.3l6.7-25.1h6.3l6.7,25.1h-5.3l-1.2-5.3h-6.7l-1.2,5.3h-5.3ZM298,127.5l-2.4,11.3h4.9l-2.4-11.3h0Z"/>
      <path class="cls-6" d="M310.2,148.3v-25.1h9.4c2.1,0,3.8.6,4.9,1.7,1.2,1.1,1.8,2.7,1.8,4.8,0,3.5-1.4,5.6-4.2,6.2h0c1.7.3,2.8,1,3.3,2.1.5,1,.7,2.9.8,5.7,0,1.5,0,2.5.2,3.1.2.7.5,1.2.9,1.4v.2h-5.5c-.4-.6-.6-1.4-.6-2.6v-4.8c-.2-2.1-1.2-3.2-3.1-3.2h-2.7v10.6h-5.1ZM315.3,126.9v7.3h2.1c2.5,0,3.8-1.3,3.8-3.8s-1.2-3.5-3.5-3.5h-2.4Z"/>
      <path class="cls-6" d="M329.5,140.4h5.1v.7c0,1.3.2,2.2.7,2.8.5.7,1.4,1.1,2.7,1.1s1.6-.3,2.1-.8c.6-.5.9-1.3.9-2.3s-.3-1.9-1-2.5-1.8-1.2-3.6-1.8c-2.3-.8-4-1.7-5-2.8-1.1-1.2-1.6-2.8-1.6-4.8s.7-4.2,2.1-5.5c1.3-1.2,3.2-1.9,5.7-1.9s4.3.5,5.6,1.6c1.5,1.2,2.2,2.9,2.2,5.2v.7h-4.9c0-2.5-.9-3.7-2.7-3.7s-2.9,1-2.9,2.9.2,1.5.5,1.9c.4.5,1.1,1,2.1,1.5l3.9,1.7c1.8.8,3.1,1.7,3.8,2.8.6,1,1,2.3,1,3.9,0,5.1-2.9,7.7-8.7,7.7s-8-2.4-8-7.3v-1h0Z"/>
    </g>
    <circle class="cls-6" cx="78" cy="137.1" r="5"/>
    <circle class="cls-6" cx="360.7" cy="137" r="5"/>
  </g>
</svg>