<?xml version="1.0" encoding="UTF-8"?>
<svg id="Layer_1" data-name="Layer 1" xmlns="http://www.w3.org/2000/svg" version="1.1" viewBox="0 0 438.7 149.8">
  <defs>
    <style>
      .cls-1, .cls-2, .cls-3, .cls-4, .cls-5, .cls-6 {
        stroke-width: 0px;
      }

      .cls-1, .cls-3, .cls-4, .cls-5 {
        fill: #fff;
      }

      .cls-1, .cls-4 {
        fill-rule: evenodd;
      }

      .cls-2, .cls-7, .cls-8, .cls-6 {
        fill: #2b2a5f;
      }

      .cls-3, .cls-9, .cls-10, .cls-4, .cls-7, .cls-6 {
        display: none;
      }

      .cls-9 {
        stroke-width: 6px;
      }

      .cls-9, .cls-10, .cls-7, .cls-11, .cls-12, .cls-8 {
        stroke-miterlimit: 10;
      }

      .cls-9, .cls-10, .cls-11, .cls-12 {
        fill: none;
      }

      .cls-9, .cls-12 {
        stroke: #2b2a5f;
      }

      .cls-10 {
        stroke-width: 8.7px;
      }

      .cls-10, .cls-7, .cls-11, .cls-8 {
        stroke: #fff;
      }

      .cls-7 {
        stroke-width: 1px;
      }

      .cls-11 {
        stroke-width: 8.6px;
      }

      .cls-12 {
        stroke-width: 5.9px;
      }

      .cls-8 {
        stroke-width: 1px;
      }
    </style>
  </defs>
  <path class="cls-10" d="M256.8,4.4c16.5-1.1,29.4,5.5,37.8,13.4,4.7,4.4,8.1,8.7,11.1,14.6,2.9,5.7,5.1,12.3,5.5,20.1.7,12.6-3.1,22.8-7.9,30.5-4.9,7.8-11.5,13.8-20.2,18.2-5.6,2.9-12.4,5.2-20.1,5.5-16.2.7-28.8-5.1-37.7-13.2-4.4-4-8.2-8.9-11.1-14.6-2.9-5.6-5.1-12.5-5.5-20.1-.8-17.2,5.4-29,13.4-37.8,3.1-3.4,6.4-6.4,10.5-8.9,6.5-4.1,14.3-7,24.2-7.7h0ZM299,40.3c-2.7-7-6.9-12.9-12.2-17.1-7.1-5.7-16.8-10.4-29.5-9.6-10.7.6-19.3,5.1-25.8,10.9-4.7,4.2-8.5,9.8-10.9,16.2-.8,2.1-2,4.8-.7,7.2,2.9.8,5.8-.2,8.5-.8,1.3-.3,2.6-.8,4-1.1,1.4-.3,2.9-.4,4.1-1,.6-.3,1.1-.9,1.7-1.3,4.9-3.6,13.8-4.7,21.6-4.7s14.8.8,19.9,3.4c1.2.6,2.5,1.8,3.4,2.4.2.2.2,0,.6.2,2.5,1,5.3,1.3,7.9,2,2.6.7,5.4,1.9,8.3,1,1.4-2.6,0-5.3-1-7.5h0ZM223.6,62.4c-1.4.1-3.2.7-3.8,1.6-1.2,1.9.3,5.4,1.1,7.4,4.2,10.2,11.9,18.1,22,22.6,1.6.7,4.5,1.8,5.8,1,1.4-.9,1.3-4.1,1.2-6.3-.1-2.5-.6-4.6-.6-6.9-7.9-3.5-13.2-9.7-15-19.3-3.6.2-8-.2-10.8,0h0ZM285.6,62.8c-2,9.2-7,15.5-14.8,18.8,0,2.4-.5,4.4-.6,7.1,0,2.2-.2,5.7,1.3,6.4,1.3.7,4-.5,5.6-1.2,7.8-3.6,13.5-8.8,17.9-15.2,1.5-2.2,2.7-4.5,3.9-7.3.7-1.6,1.7-4.2,1.6-5.8-.3-3.1-3.7-3.2-6.7-3.2h-8c-.1,0-.1.2-.1.4h0Z"/>
  <path class="cls-4" d="M256.8,4.4c16.5-1.1,29.4,5.5,37.8,13.4,4.7,4.4,8.1,8.7,11.1,14.6,2.9,5.7,5.1,12.3,5.5,20.1.7,12.6-3.1,22.8-7.9,30.5-4.9,7.8-11.5,13.8-20.2,18.2-5.6,2.9-12.4,5.2-20.1,5.5-16.2.7-28.8-5.1-37.7-13.2-4.4-4-8.2-8.9-11.1-14.6-2.9-5.6-5.1-12.5-5.5-20.1-.8-17.2,5.4-29,13.4-37.8,3.1-3.4,6.4-6.4,10.5-8.9,6.5-4.1,14.3-7,24.2-7.7h0ZM299,40.3c-2.7-7-6.9-12.9-12.2-17.1-7.1-5.7-16.8-10.4-29.5-9.6-10.7.6-19.3,5.1-25.8,10.9-4.7,4.2-8.5,9.8-10.9,16.2-.8,2.1-2,4.8-.7,7.2,2.9.8,5.8-.2,8.5-.8,1.3-.3,2.6-.8,4-1.1,1.4-.3,2.9-.4,4.1-1,.6-.3,1.1-.9,1.7-1.3,4.9-3.6,13.8-4.7,21.6-4.7s14.8.8,19.9,3.4c1.2.6,2.5,1.8,3.4,2.4.2.2.2,0,.6.2,2.5,1,5.3,1.3,7.9,2,2.6.7,5.4,1.9,8.3,1,1.4-2.6,0-5.3-1-7.5h0ZM223.6,62.4c-1.4.1-3.2.7-3.8,1.6-1.2,1.9.3,5.4,1.1,7.4,4.2,10.2,11.9,18.1,22,22.6,1.6.7,4.5,1.8,5.8,1,1.4-.9,1.3-4.1,1.2-6.3-.1-2.5-.6-4.6-.6-6.9-7.9-3.5-13.2-9.7-15-19.3-3.6.2-8-.2-10.8,0h0ZM285.6,62.8c-2,9.2-7,15.5-14.8,18.8,0,2.4-.5,4.4-.6,7.1,0,2.2-.2,5.7,1.3,6.4,1.3.7,4-.5,5.6-1.2,7.8-3.6,13.5-8.8,17.9-15.2,1.5-2.2,2.7-4.5,3.9-7.3.7-1.6,1.7-4.2,1.6-5.8-.3-3.1-3.7-3.2-6.7-3.2h-8c-.1,0-.1.2-.1.4h0Z"/>
  <path class="cls-7" d="M296.5,15.6h134.4c4,0,7.3,3.6,7.3,8.1v65.1c0,4.4-3.3,8.1-7.3,8.1H7.9c-4,0-7.3-3.6-7.3-8.1V23.7c0-4.4,3.3-8.1,7.3-8.1h215.4"/>
  <path class="cls-3" d="M63.2,34.6v40.1c0,1.8-1.4,3.2-3.2,3.2h-1.3c-1.8,0-3.2-1.4-3.2-3.2v-16.5l-15.5,19.3-15.5-19.3v16.5c0,1.8-1.4,3.2-3.2,3.2h-1.3c-1.8,0-3.2-1.4-3.2-3.2v-40.1l23.2,30s23.2-30,23.2-30Z"/>
  <path class="cls-3" d="M108.7,34.5h0s-16.8,21.7-16.8,21.7h0s-.9,1.2-.9,1.2v17.2c0,1.8-1.4,3.2-3.2,3.2h-1.3c-1.8,0-3.2-1.4-3.2-3.2v-17.1l-1-1.3h0s-12.8-16.6-12.8-16.6c-1.6-2.1-.1-5.2,2.6-5.2h1.6c1,0,1.9.5,2.6,1.2l10.9,14.2,10.9-14.2c.6-.8,1.6-1.2,2.6-1.2h8.1ZM65.4,77.9h0,0c0,.1,0,0,0,0ZM108.6,77.9h0c0,0,0,0,0,0Z"/>
  <path class="cls-3" d="M115.9,57.2c.5,7.4,7,13,14.4,13h18c1.8,0,3.2,1.4,3.2,3.2v1.3c0,1.8-1.4,3.2-3.2,3.2h-17.8c-11.7,0-21.7-9-22.2-20.6-.6-12.4,9.3-22.7,21.6-22.7h18.4c1.8,0,3.2,1.4,3.2,3.2v1.3c0,1.8-1.4,3.2-3.2,3.2h-18.4c-8,0-14.4,6.8-13.9,14.9h0Z"/>
  <path class="cls-3" d="M200.7,37.8v36.9c0,1.8-1.4,3.2-3.2,3.2h-1.3c-1.8,0-3.2-1.4-3.2-3.2v-16.7h-27.9v16.6c0,1.8-1.4,3.2-3.2,3.2h-1.3c-1.8,0-3.2-1.4-3.2-3.2v-36.9c0-1.8,1.4-3.2,3.2-3.2h1.3c1.8,0,3.2,1.4,3.2,3.2v12.5h27.9v-12.5c0-1.8,1.4-3.2,3.2-3.2h1.3c1.8,0,3.2,1.4,3.2,3.2h0Z"/>
  <path class="cls-3" d="M318.3,74.7v-36.9c0-1.8,1.4-3.2,3.2-3.2h1.3c1.8,0,3.2,1.4,3.2,3.2v36.9c0,1.8-1.4,3.2-3.2,3.2h-1.3c-1.8,0-3.2-1.4-3.2-3.2Z"/>
  <path class="cls-3" d="M374.9,73.4v1.3c0,1.8-1.4,3.2-3.2,3.2h-33.5c-2.7,0-4.2-3.1-2.5-5.2l23.4-30.3h-24.3c-1.8,0-3.2-1.4-3.2-3.2v-1.3c0-1.8,1.4-3.2,3.2-3.2h33.5c2.7,0,4.2,3,2.5,5.2l-23.4,30.4h24.3c1.8,0,3.2,1.4,3.2,3.2h0Z"/>
  <path class="cls-3" d="M386.5,46.3v6.3h31.9c1.8,0,3.2,1.4,3.2,3.2v1.3c0,1.8-1.4,3.2-3.2,3.2h-31.9v5.9c0,2.2,1.8,4,4,4h28.4c1.8,0,3.2,1.4,3.2,3.2v1.3c0,1.8-1.4,3.2-3.2,3.2h-28.4c-6.5,0-11.7-5.2-11.7-11.7v-20c0-6.5,5.2-11.7,11.7-11.7h28.4c1.8,0,3.2,1.4,3.2,3.2v1.3c0,1.8-1.4,3.2-3.2,3.2h-28.4c-2.2,0-4,1.8-4,4h0Z"/>
  <path class="cls-9" d="M256.8,4.4c16.5-1.1,29.4,5.5,37.8,13.4,4.7,4.4,8.1,8.7,11.1,14.6,2.9,5.7,5.1,12.3,5.5,20.1.7,12.6-3.1,22.8-7.9,30.5-4.9,7.8-11.5,13.8-20.2,18.2-5.6,2.9-12.4,5.2-20.1,5.5-16.2.7-28.8-5.1-37.7-13.2-4.4-4-8.2-8.9-11.1-14.6-2.9-5.6-5.1-12.5-5.5-20.1-.8-17.2,5.4-29,13.4-37.8,3.1-3.4,6.4-6.4,10.5-8.9,6.5-4.1,14.3-7,24.2-7.7h0ZM299,40.3c-2.7-7-6.9-12.9-12.2-17.1-7.1-5.7-16.8-10.4-29.5-9.6-10.7.6-19.3,5.1-25.8,10.9-4.7,4.2-8.5,9.8-10.9,16.2-.8,2.1-2,4.8-.7,7.2,2.9.8,5.8-.2,8.5-.8,1.3-.3,2.6-.8,4-1.1,1.4-.3,2.9-.4,4.1-1,.6-.3,1.1-.9,1.7-1.3,4.9-3.6,13.8-4.7,21.6-4.7s14.8.8,19.9,3.4c1.2.6,2.5,1.8,3.4,2.4.2.2.2,0,.6.2,2.5,1,5.3,1.3,7.9,2,2.6.7,5.4,1.9,8.3,1,1.4-2.6,0-5.3-1-7.5h0ZM223.6,62.4c-1.4.1-3.2.7-3.8,1.6-1.2,1.9.3,5.4,1.1,7.4,4.2,10.2,11.9,18.1,22,22.6,1.6.7,4.5,1.8,5.8,1,1.4-.9,1.3-4.1,1.2-6.3-.1-2.5-.6-4.6-.6-6.9-7.9-3.5-13.2-9.7-15-19.3-3.6.2-8-.2-10.8,0h0ZM285.6,62.8c-2,9.2-7,15.5-14.8,18.8,0,2.4-.5,4.4-.6,7.1,0,2.2-.2,5.7,1.3,6.4,1.3.7,4-.5,5.6-1.2,7.8-3.6,13.5-8.8,17.9-15.2,1.5-2.2,2.7-4.5,3.9-7.3.7-1.6,1.7-4.2,1.6-5.8-.3-3.1-3.7-3.2-6.7-3.2h-8c-.1,0-.1.2-.1.4h0Z"/>
  <path class="cls-4" d="M256.8,4.4c16.5-1.1,29.4,5.5,37.8,13.4,4.7,4.4,8.1,8.7,11.1,14.6,2.9,5.7,5.1,12.3,5.5,20.1.7,12.6-3.1,22.8-7.9,30.5-4.9,7.8-11.5,13.8-20.2,18.2-5.6,2.9-12.4,5.2-20.1,5.5-16.2.7-28.8-5.1-37.7-13.2-4.4-4-8.2-8.9-11.1-14.6-2.9-5.6-5.1-12.5-5.5-20.1-.8-17.2,5.4-29,13.4-37.8,3.1-3.4,6.4-6.4,10.5-8.9,6.5-4.1,14.3-7,24.2-7.7h0ZM299,40.3c-2.7-7-6.9-12.9-12.2-17.1-7.1-5.7-16.8-10.4-29.5-9.6-10.7.6-19.3,5.1-25.8,10.9-4.7,4.2-8.5,9.8-10.9,16.2-.8,2.1-2,4.8-.7,7.2,2.9.8,5.8-.2,8.5-.8,1.3-.3,2.6-.8,4-1.1,1.4-.3,2.9-.4,4.1-1,.6-.3,1.1-.9,1.7-1.3,4.9-3.6,13.8-4.7,21.6-4.7s14.8.8,19.9,3.4c1.2.6,2.5,1.8,3.4,2.4.2.2.2,0,.6.2,2.5,1,5.3,1.3,7.9,2,2.6.7,5.4,1.9,8.3,1,1.4-2.6,0-5.3-1-7.5h0ZM223.6,62.4c-1.4.1-3.2.7-3.8,1.6-1.2,1.9.3,5.4,1.1,7.4,4.2,10.2,11.9,18.1,22,22.6,1.6.7,4.5,1.8,5.8,1,1.4-.9,1.3-4.1,1.2-6.3-.1-2.5-.6-4.6-.6-6.9-7.9-3.5-13.2-9.7-15-19.3-3.6.2-8-.2-10.8,0h0ZM285.6,62.8c-2,9.2-7,15.5-14.8,18.8,0,2.4-.5,4.4-.6,7.1,0,2.2-.2,5.7,1.3,6.4,1.3.7,4-.5,5.6-1.2,7.8-3.6,13.5-8.8,17.9-15.2,1.5-2.2,2.7-4.5,3.9-7.3.7-1.6,1.7-4.2,1.6-5.8-.3-3.1-3.7-3.2-6.7-3.2h-8c-.1,0-.1.2-.1.4h0Z"/>
  <circle class="cls-6" cx="96.7" cy="138" r="5.1"/>
  <circle class="cls-6" cx="342.1" cy="137.8" r="5.1"/>
  <path class="cls-6" d="M132.4,132.9h-5c0-1.9-.2-3.2-.7-4s-1.2-1.2-2.3-1.2-2.1.7-2.5,2.1c-.4,1.3-.6,3.8-.6,7.4s.3,6,.8,7.2c.4,1.1,1.2,1.6,2.4,1.6s1.8-.4,2.2-1.1c.6-.9.9-2.7.9-5.1h5c0,3.1-.5,5.4-1.5,7-1.2,2-3.4,3-6.4,3s-5.8-1.2-7-3.6c-.9-1.8-1.4-4.9-1.4-9.2s.5-7.4,1.4-9.2c1.2-2.4,3.6-3.6,7-3.6s5.3,1,6.5,3.1c.8,1.3,1.1,3.3,1.1,5.8h0Z"/>
  <path class="cls-6" d="M135.4,149.3l6.6-24.7h6.2l6.6,24.7h-5.2l-1.1-5.2h-6.6l-1.1,5.2h-5.2ZM145,128.8l-2.4,11.1h4.9l-2.4-11.1h0Z"/>
  <path class="cls-6" d="M158.2,149.3v-24.7h9.2c2.1,0,3.7.5,4.9,1.6,1.2,1.1,1.7,2.7,1.7,4.8,0,3.5-1.4,5.5-4.1,6.1h0c1.6.3,2.7.9,3.2,2.1.5,1,.7,2.8.8,5.6,0,1.4,0,2.4.2,3,.2.7.5,1.2.9,1.4v.2h-5.4c-.4-.6-.6-1.4-.6-2.6v-4.8c-.2-2.1-1.2-3.1-3.1-3.1h-2.7v10.5h-5,0ZM163.2,128.2v7.1h2.1c2.5,0,3.7-1.2,3.7-3.7s-1.2-3.4-3.5-3.4h-2.4,0Z"/>
  <path class="cls-6" d="M189.2,149.3v-24.7h9.2c2.1,0,3.7.5,4.9,1.6,1.2,1.1,1.7,2.7,1.7,4.8,0,3.5-1.4,5.5-4.1,6.1h0c1.6.3,2.7.9,3.2,2.1.5,1,.7,2.8.8,5.6,0,1.4,0,2.4.2,3,.2.7.5,1.2.9,1.4v.2h-5.4c-.4-.6-.6-1.4-.6-2.6v-4.8c-.2-2.1-1.2-3.1-3.1-3.1h-2.7v10.5h-5,0ZM194.2,128.2v7.1h2.1c2.5,0,3.7-1.2,3.7-3.7s-1.2-3.4-3.5-3.4h-2.4,0Z"/>
  <path class="cls-6" d="M210.2,124.5h13.8v4.1h-8.8v5.8h8.3v4.1h-8.3v6.6h9.2v4.1h-14.2s0-24.7,0-24.7Z"/>
  <path class="cls-6" d="M228.6,124.5h5.8l6.1,16.9v-16.9h4.6v24.7h-5.7l-6.1-17.3v17.3h-4.6v-24.7h0Z"/>
  <path class="cls-6" d="M248.9,124.5h15.8v4.1h-5.4v20.6h-5v-20.6h-5.4v-4.1h0Z"/>
  <path class="cls-6" d="M266.9,149.3l6.5-24.7h6.2l6.5,24.7h-5.2l-1.1-5.2h-6.6l-1.1,5.2h-5.2ZM276.5,128.8l-2.4,11.1h4.9l-2.4-11.1h0,0Z"/>
  <path class="cls-6" d="M303.5,149.3h-13.8v-24.7h5v20.7h8.8v4.1Z"/>
  <path class="cls-6" d="M306.4,141.6h5v.7c0,1.3.2,2.2.7,2.8.5.7,1.4,1,2.6,1s1.5-.3,2.1-.8c.6-.5.9-1.3.9-2.2s-.3-1.9-.9-2.5c-.6-.6-1.8-1.2-3.5-1.7-2.3-.8-3.9-1.7-4.9-2.8-1.1-1.2-1.6-2.7-1.6-4.7s.7-4.2,2.1-5.4c1.3-1.2,3.2-1.8,5.6-1.8s4.2.5,5.5,1.6c1.4,1.1,2.1,2.8,2.1,5.1v.7h-4.8c0-2.4-.9-3.7-2.7-3.7s-2.8,1-2.8,2.9.2,1.4.5,1.9c.4.5,1.1,1,2.1,1.5l3.9,1.7c1.8.8,3.1,1.7,3.8,2.7.6.9.9,2.2.9,3.8,0,5.1-2.9,7.6-8.6,7.6s-7.9-2.4-7.9-7.2v-1h0Z"/>
  <g>
    <g>
      <path class="cls-11" d="M256.5,5.4c16.4-1.1,29.2,5.5,37.6,13.3,4.6,4.3,8,8.7,11,14.5,2.9,5.6,5,12.2,5.4,19.9.7,12.5-3,22.7-7.9,30.3-4.9,7.8-11.5,13.7-20.1,18.1-5.6,2.9-12.3,5.1-19.9,5.4-16.1.7-28.6-5.1-37.4-13.2-4.4-4-8.1-8.8-11-14.5-2.8-5.6-5.1-12.4-5.4-19.9-.8-17.1,5.4-28.8,13.3-37.6,3-3.4,6.4-6.3,10.4-8.8,6.4-4,14.2-7,24-7.6ZM298.4,41c-2.7-7-6.8-12.8-12.1-17-7-5.7-16.7-10.3-29.4-9.5-10.6.6-19.2,5.1-25.6,10.9-4.7,4.2-8.4,9.7-10.9,16.1-.8,2.1-2,4.7-.7,7.1,2.9.8,5.7-.2,8.5-.8,1.3-.3,2.6-.8,4-1.1,1.4-.3,2.9-.4,4.1-1,.6-.3,1.1-.9,1.7-1.3,4.9-3.6,13.7-4.7,21.5-4.7s14.7.8,19.8,3.4c1.2.6,2.5,1.7,3.4,2.4.2.2.2,0,.6.2,2.5,1,5.2,1.3,7.9,1.9,2.6.7,5.3,1.9,8.2,1,1.4-2.6,0-5.2-1-7.5ZM223.5,63c-1.4.1-3.2.6-3.7,1.6-1.2,1.9.3,5.3,1.1,7.4,4.1,10.1,11.8,18,21.9,22.5,1.6.7,4.5,1.8,5.8,1,1.4-.9,1.3-4.1,1.2-6.3-.1-2.5-.6-4.6-.6-6.9-7.8-3.5-13.1-9.6-14.9-19.2-3.6.2-7.9-.2-10.7,0ZM285.1,63.4c-2,9.2-6.9,15.4-14.7,18.7,0,2.4-.5,4.4-.6,7,0,2.2-.2,5.6,1.3,6.4,1.3.7,4-.5,5.6-1.2,7.7-3.5,13.4-8.7,17.8-15.1,1.5-2.2,2.7-4.4,3.9-7.2.7-1.6,1.7-4.2,1.6-5.8-.3-3.1-3.7-3.1-6.6-3.1h-8c-.1,0-.1.2-.1.4Z"/>
      <path class="cls-1" d="M256.5,5.4c16.4-1.1,29.2,5.5,37.6,13.3,4.6,4.3,8,8.7,11,14.5,2.9,5.6,5,12.2,5.4,19.9.7,12.5-3,22.7-7.9,30.3-4.9,7.8-11.5,13.7-20.1,18.1-5.6,2.9-12.3,5.1-19.9,5.4-16.1.7-28.6-5.1-37.4-13.2-4.4-4-8.1-8.8-11-14.5-2.8-5.6-5.1-12.4-5.4-19.9-.8-17.1,5.4-28.8,13.3-37.6,3-3.4,6.4-6.3,10.4-8.8,6.4-4,14.2-7,24-7.6ZM298.4,41c-2.7-7-6.8-12.8-12.1-17-7-5.7-16.7-10.3-29.4-9.5-10.6.6-19.2,5.1-25.6,10.9-4.7,4.2-8.4,9.7-10.9,16.1-.8,2.1-2,4.7-.7,7.1,2.9.8,5.7-.2,8.5-.8,1.3-.3,2.6-.8,4-1.1,1.4-.3,2.9-.4,4.1-1,.6-.3,1.1-.9,1.7-1.3,4.9-3.6,13.7-4.7,21.5-4.7s14.7.8,19.8,3.4c1.2.6,2.5,1.7,3.4,2.4.2.2.2,0,.6.2,2.5,1,5.2,1.3,7.9,1.9,2.6.7,5.3,1.9,8.2,1,1.4-2.6,0-5.2-1-7.5ZM223.5,63c-1.4.1-3.2.6-3.7,1.6-1.2,1.9.3,5.3,1.1,7.4,4.1,10.1,11.8,18,21.9,22.5,1.6.7,4.5,1.8,5.8,1,1.4-.9,1.3-4.1,1.2-6.3-.1-2.5-.6-4.6-.6-6.9-7.8-3.5-13.1-9.6-14.9-19.2-3.6.2-7.9-.2-10.7,0ZM285.1,63.4c-2,9.2-6.9,15.4-14.7,18.7,0,2.4-.5,4.4-.6,7,0,2.2-.2,5.6,1.3,6.4,1.3.7,4-.5,5.6-1.2,7.7-3.5,13.4-8.7,17.8-15.1,1.5-2.2,2.7-4.4,3.9-7.2.7-1.6,1.7-4.2,1.6-5.8-.3-3.1-3.7-3.1-6.6-3.1h-8c-.1,0-.1.2-.1.4Z"/>
    </g>
    <path class="cls-8" d="M295.9,16.5h133.5c4,0,7.3,3.6,7.3,8v64.7c0,4.4-3.3,8-7.3,8H9.3c-4,0-7.3-3.6-7.3-8V24.5c0-4.4,3.3-8,7.3-8h214"/>
    <g>
      <path class="cls-5" d="M64.2,35.3v39.8c0,1.8-1.4,3.2-3.2,3.2h-1.3c-1.8,0-3.2-1.4-3.2-3.2v-16.4l-15.4,19.2-15.4-19.2v16.4c0,1.8-1.4,3.2-3.2,3.2h-1.3c-1.8,0-3.2-1.4-3.2-3.2v-39.8l23.1,29.8,23.1-29.8Z"/>
      <path class="cls-5" d="M109.4,35.3h0s-16.7,21.6-16.7,21.6h0s-.9,1.2-.9,1.2v17.1c0,1.8-1.4,3.2-3.2,3.2h-1.3c-1.8,0-3.2-1.4-3.2-3.2v-17l-1-1.3h0s-12.7-16.5-12.7-16.5c-1.6-2.1-.1-5.1,2.5-5.1h1.6c1,0,1.9.5,2.5,1.2l10.9,14.1,10.9-14.1c.6-.8,1.5-1.2,2.5-1.2h8.1ZM66.4,78.3h.1-.1c0,.1,0,0,0,0ZM109.3,78.3h0c0,.1,0,0,0,0Z"/>
      <path class="cls-5" d="M116.5,57.8c.5,7.4,6.9,12.9,14.3,12.9h17.8c1.8,0,3.2,1.4,3.2,3.2v1.3c0,1.8-1.4,3.2-3.2,3.2h-17.7c-11.6,0-21.6-8.9-22.1-20.5-.6-12.4,9.3-22.6,21.5-22.6h18.3c1.8,0,3.2,1.4,3.2,3.2v1.3c0,1.8-1.4,3.2-3.2,3.2h-18.3c-8,0-14.4,6.7-13.8,14.8Z"/>
      <path class="cls-5" d="M200.8,38.6v36.6c0,1.8-1.4,3.2-3.2,3.2h-1.3c-1.8,0-3.2-1.4-3.2-3.2v-16.5h-27.7v16.5c0,1.8-1.4,3.2-3.2,3.2h-1.3c-1.8,0-3.2-1.4-3.2-3.2v-36.6c0-1.8,1.4-3.2,3.2-3.2h1.3c1.8,0,3.2,1.4,3.2,3.2v12.4h27.7v-12.4c0-1.8,1.4-3.2,3.2-3.2h1.3c1.8,0,3.2,1.4,3.2,3.2Z"/>
      <path class="cls-5" d="M317.6,75.2v-36.6c0-1.8,1.4-3.2,3.2-3.2h1.3c1.8,0,3.2,1.4,3.2,3.2v36.6c0,1.8-1.4,3.2-3.2,3.2h-1.3c-1.8,0-3.2-1.4-3.2-3.2Z"/>
      <path class="cls-5" d="M373.9,73.9v1.3c0,1.8-1.4,3.2-3.2,3.2h-33.2c-2.7,0-4.2-3-2.5-5.1l23.3-30.1h-24.1c-1.8,0-3.2-1.4-3.2-3.2v-1.3c0-1.8,1.4-3.2,3.2-3.2h33.3c2.7,0,4.2,3,2.5,5.1l-23.3,30.2h24.1c1.8,0,3.2,1.4,3.2,3.2Z"/>
      <path class="cls-5" d="M385.3,47v6.3h31.7c1.8,0,3.2,1.4,3.2,3.2v1.3c0,1.8-1.4,3.2-3.2,3.2h-31.7v5.9c0,2.2,1.8,4,4,4h28.2c1.8,0,3.2,1.4,3.2,3.2v1.3c0,1.8-1.4,3.2-3.2,3.2h-28.2c-6.4,0-11.6-5.2-11.6-11.6v-19.8c0-6.4,5.2-11.6,11.6-11.6h28.2c1.8,0,3.2,1.4,3.2,3.2v1.3c0,1.8-1.4,3.2-3.2,3.2h-28.2c-2.2,0-3.9,1.8-3.9,3.9Z"/>
      <g>
        <path class="cls-12" d="M256.5,5.4c16.4-1.1,29.2,5.5,37.6,13.3,4.6,4.3,8,8.7,11,14.5,2.9,5.6,5,12.2,5.4,19.9.7,12.5-3,22.7-7.9,30.3-4.9,7.8-11.5,13.7-20.1,18.1-5.6,2.9-12.3,5.1-19.9,5.4-16.1.7-28.6-5.1-37.4-13.2-4.4-4-8.1-8.8-11-14.5-2.8-5.6-5.1-12.4-5.4-19.9-.8-17.1,5.4-28.8,13.3-37.6,3-3.4,6.4-6.3,10.4-8.8,6.4-4,14.2-7,24-7.6ZM298.4,41c-2.7-7-6.8-12.8-12.1-17-7-5.7-16.7-10.3-29.4-9.5-10.6.6-19.2,5.1-25.6,10.9-4.7,4.2-8.4,9.7-10.9,16.1-.8,2.1-2,4.7-.7,7.1,2.9.8,5.7-.2,8.5-.8,1.3-.3,2.6-.8,4-1.1,1.4-.3,2.9-.4,4.1-1,.6-.3,1.1-.9,1.7-1.3,4.9-3.6,13.7-4.7,21.5-4.7s14.7.8,19.8,3.4c1.2.6,2.5,1.7,3.4,2.4.2.2.2,0,.6.2,2.5,1,5.2,1.3,7.9,1.9,2.6.7,5.3,1.9,8.2,1,1.4-2.6,0-5.2-1-7.5ZM223.5,63c-1.4.1-3.2.6-3.7,1.6-1.2,1.9.3,5.3,1.1,7.4,4.1,10.1,11.8,18,21.9,22.5,1.6.7,4.5,1.8,5.8,1,1.4-.9,1.3-4.1,1.2-6.3-.1-2.5-.6-4.6-.6-6.9-7.8-3.5-13.1-9.6-14.9-19.2-3.6.2-7.9-.2-10.7,0ZM285.1,63.4c-2,9.2-6.9,15.4-14.7,18.7,0,2.4-.5,4.4-.6,7,0,2.2-.2,5.6,1.3,6.4,1.3.7,4-.5,5.6-1.2,7.7-3.5,13.4-8.7,17.8-15.1,1.5-2.2,2.7-4.4,3.9-7.2.7-1.6,1.7-4.2,1.6-5.8-.3-3.1-3.7-3.1-6.6-3.1h-8c-.1,0-.1.2-.1.4Z"/>
        <path class="cls-1" d="M256.5,5.4c16.4-1.1,29.2,5.5,37.6,13.3,4.6,4.3,8,8.7,11,14.5,2.9,5.6,5,12.2,5.4,19.9.7,12.5-3,22.7-7.9,30.3-4.9,7.8-11.5,13.7-20.1,18.1-5.6,2.9-12.3,5.1-19.9,5.4-16.1.7-28.6-5.1-37.4-13.2-4.4-4-8.1-8.8-11-14.5-2.8-5.6-5.1-12.4-5.4-19.9-.8-17.1,5.4-28.8,13.3-37.6,3-3.4,6.4-6.3,10.4-8.8,6.4-4,14.2-7,24-7.6ZM298.4,41c-2.7-7-6.8-12.8-12.1-17-7-5.7-16.7-10.3-29.4-9.5-10.6.6-19.2,5.1-25.6,10.9-4.7,4.2-8.4,9.7-10.9,16.1-.8,2.1-2,4.7-.7,7.1,2.9.8,5.7-.2,8.5-.8,1.3-.3,2.6-.8,4-1.1,1.4-.3,2.9-.4,4.1-1,.6-.3,1.1-.9,1.7-1.3,4.9-3.6,13.7-4.7,21.5-4.7s14.7.8,19.8,3.4c1.2.6,2.5,1.7,3.4,2.4.2.2.2,0,.6.2,2.5,1,5.2,1.3,7.9,1.9,2.6.7,5.3,1.9,8.2,1,1.4-2.6,0-5.2-1-7.5ZM223.5,63c-1.4.1-3.2.6-3.7,1.6-1.2,1.9.3,5.3,1.1,7.4,4.1,10.1,11.8,18,21.9,22.5,1.6.7,4.5,1.8,5.8,1,1.4-.9,1.3-4.1,1.2-6.3-.1-2.5-.6-4.6-.6-6.9-7.8-3.5-13.1-9.6-14.9-19.2-3.6.2-7.9-.2-10.7,0ZM285.1,63.4c-2,9.2-6.9,15.4-14.7,18.7,0,2.4-.5,4.4-.6,7,0,2.2-.2,5.6,1.3,6.4,1.3.7,4-.5,5.6-1.2,7.7-3.5,13.4-8.7,17.8-15.1,1.5-2.2,2.7-4.4,3.9-7.2.7-1.6,1.7-4.2,1.6-5.8-.3-3.1-3.7-3.1-6.6-3.1h-8c-.1,0-.1.2-.1.4Z"/>
      </g>
    </g>
    <g>
      <path class="cls-2" d="M92.1,141.4h5.1v.7c0,1.3.2,2.2.7,2.8.5.7,1.4,1.1,2.7,1.1s1.6-.3,2.2-.8c.6-.5.9-1.3.9-2.3s-.3-2-1-2.6-1.8-1.2-3.6-1.8c-2.4-.8-4-1.7-5-2.8-1.1-1.2-1.6-2.8-1.6-4.8s.7-4.3,2.1-5.6c1.3-1.3,3.2-1.9,5.7-1.9s4.3.5,5.6,1.6c1.5,1.2,2.2,2.9,2.2,5.2v.7h-4.9c0-2.5-.9-3.8-2.8-3.8s-2.9,1-2.9,2.9.2,1.5.5,1.9c.4.5,1.1,1,2.1,1.5l3.9,1.7c1.8.8,3.1,1.7,3.9,2.8.6,1,1,2.3,1,3.9,0,5.2-2.9,7.8-8.8,7.8s-8-2.5-8-7.4v-1h0Z"/>
      <path class="cls-2" d="M112.2,124h14.1v4.2h-9v5.9h8.5v4.2h-8.5v6.8h9.4v4.2h-14.5v-25.3h0Z"/>
      <path class="cls-2" d="M144,149.3h-14.1v-25.3h5.1v21.1h9v4.2h0Z"/>
      <path class="cls-2" d="M147,149.3v-25.3h14.1v4.2h-9v5.9h8.5v4.2h-8.5v11h-5.1Z"/>
      <path class="cls-2" d="M173.6,149.3v-25.3h8.4c3.3,0,5.6,1.1,6.8,3.4,1,1.8,1.5,4.8,1.5,8.9s-.6,7.9-1.8,9.8c-1.3,2.1-3.6,3.1-6.9,3.1h-8ZM178.7,127.7v17.8h2.3c1.7,0,2.9-.7,3.5-2,.5-1.2.8-3.6.8-7.1s-.2-5.3-.7-6.5c-.6-1.5-1.8-2.2-3.6-2.2h-2.2Z"/>
      <path class="cls-2" d="M194.4,149.3v-25.3h9.4c2.1,0,3.8.6,5,1.7,1.2,1.1,1.8,2.7,1.8,4.8,0,3.6-1.4,5.6-4.2,6.2h0c1.7.3,2.8,1,3.3,2.1.5,1,.7,2.9.8,5.7,0,1.5,0,2.5.2,3.1.2.7.5,1.2.9,1.5v.2h-5.5c-.4-.6-.6-1.5-.6-2.7v-4.8c-.2-2.1-1.2-3.2-3.1-3.2h-2.7v10.7h-5.1ZM199.5,127.7v7.3h2.1c2.6,0,3.8-1.3,3.8-3.8s-1.2-3.5-3.5-3.5h-2.4Z"/>
      <path class="cls-2" d="M220.1,149.3h-5.1v-25.3h5.1v25.3Z"/>
      <path class="cls-2" d="M222.9,124h5.5l3.6,18.7h.1l3.8-18.7h5.3l-5.8,25.3h-6.6l-5.8-25.3Z"/>
      <path class="cls-2" d="M243.7,124h14.1v4.2h-9v5.9h8.5v4.2h-8.5v6.8h9.4v4.2h-14.5v-25.3h0Z"/>
      <path class="cls-2" d="M286.5,132.5h-5.1c0-1.9-.2-3.2-.7-4.1s-1.2-1.2-2.4-1.2-2.1.7-2.6,2.2c-.4,1.3-.6,3.9-.6,7.5s.3,6.1.8,7.4c.4,1.1,1.3,1.7,2.4,1.7s1.8-.4,2.3-1.2c.6-1,.9-2.7.9-5.2h5.1c0,3.2-.5,5.5-1.5,7.1-1.3,2-3.4,3-6.5,3s-5.9-1.2-7.2-3.7c-1-1.9-1.5-5-1.5-9.5s.5-7.6,1.5-9.5c1.3-2.5,3.6-3.7,7.2-3.7s5.4,1,6.7,3.1c.8,1.4,1.2,3.3,1.2,5.9Z"/>
      <path class="cls-2" d="M288.6,149.3l6.7-25.3h6.3l6.7,25.3h-5.3l-1.2-5.3h-6.7l-1.2,5.3h-5.3ZM298.4,128.4l-2.4,11.4h5l-2.4-11.4h0Z"/>
      <path class="cls-2" d="M310.7,149.3v-25.3h9.4c2.1,0,3.8.6,5,1.7,1.2,1.1,1.8,2.7,1.8,4.8,0,3.6-1.4,5.6-4.2,6.2h0c1.7.3,2.8,1,3.3,2.1.5,1,.7,2.9.8,5.7,0,1.5,0,2.5.2,3.1.2.7.5,1.2.9,1.5v.2h-5.5c-.4-.6-.6-1.5-.6-2.7v-4.8c-.2-2.1-1.2-3.2-3.2-3.2h-2.7v10.7h-5.1ZM315.8,127.7v7.3h2.1c2.6,0,3.8-1.3,3.8-3.8s-1.2-3.5-3.5-3.5h-2.4Z"/>
      <path class="cls-2" d="M330.1,141.4h5.1v.7c0,1.3.2,2.2.7,2.8.5.7,1.4,1.1,2.7,1.1s1.6-.3,2.2-.8c.6-.5.9-1.3.9-2.3s-.3-2-1-2.6-1.8-1.2-3.6-1.8c-2.4-.8-4-1.7-5-2.8-1.1-1.2-1.6-2.8-1.6-4.8s.7-4.3,2.1-5.6c1.3-1.3,3.2-1.9,5.7-1.9s4.3.5,5.6,1.6c1.5,1.2,2.2,2.9,2.2,5.2v.7h-4.9c0-2.5-.9-3.8-2.8-3.8s-2.9,1-2.9,2.9.2,1.5.5,1.9c.4.5,1.1,1,2.1,1.5l3.9,1.7c1.8.8,3.1,1.7,3.9,2.8.6,1,1,2.3,1,3.9,0,5.2-2.9,7.8-8.8,7.8s-8-2.5-8-7.4v-1h0Z"/>
    </g>
    <circle class="cls-2" cx="77.2" cy="138" r="5.1"/>
    <circle class="cls-2" cx="361.5" cy="137.9" r="5.1"/>
  </g>
</svg>