<svg width="16" height="13" viewBox="0 0 16 13" fill="none" xmlns="http://www.w3.org/2000/svg">
<path d="M5.195 12.3572C6.35628 12.3645 7.50746 12.1412 8.58176 11.7001C9.65606 11.2591 10.6321 10.6092 11.4533 9.78798C12.2744 8.96682 12.9244 7.99078 13.3654 6.91648C13.8065 5.84218 14.0298 4.691 14.0225 3.52972C14.0225 3.39222 14.0225 3.26159 14.0225 3.12409C14.6245 2.68305 15.1455 2.14109 15.5625 1.52222C14.9957 1.77013 14.3959 1.93455 13.7819 2.01034C14.4329 1.62244 14.9213 1.01186 15.1569 0.291592C14.5502 0.655583 13.8849 0.911467 13.1906 1.04784C12.7231 0.549657 12.1044 0.219443 11.4303 0.108295C10.7561 -0.00285263 10.0642 0.111261 9.46144 0.43298C8.85871 0.754698 8.3788 1.26609 8.09598 1.88802C7.81315 2.50995 7.74318 3.20776 7.89688 3.87347C6.66352 3.81293 5.45674 3.49329 4.35512 2.93538C3.2535 2.37746 2.28174 1.59377 1.50313 0.635342C1.11051 1.31678 0.991506 2.12194 1.17021 2.88781C1.34891 3.65369 1.81197 4.32304 2.46562 4.76034C1.98342 4.74175 1.51237 4.60985 1.09062 4.37534V4.40972C1.08634 5.12185 1.32625 5.81395 1.77036 6.37065C2.21447 6.92736 2.83596 7.31504 3.53125 7.46909C3.08275 7.58972 2.61295 7.60851 2.15625 7.52409C2.35754 8.13142 2.74178 8.66161 3.25628 9.04194C3.77078 9.42228 4.39034 9.63414 5.03 9.64847C3.93633 10.5288 2.57706 11.0134 1.17313 11.0235C0.926968 11.0163 0.681389 10.9957 0.4375 10.9616C1.85853 11.867 3.51008 12.3443 5.195 12.3366" fill="#2C295F"/>
</svg>
